/* XPM */
static char *pd_extended__[] = {
/* columns rows colors chars-per-pixel */
"32 32 238 2 ",
"   c #000000",
".  c #010101",
"X  c #010201",
"o  c #020202",
"O  c #030303",
"+  c #020401",
"@  c #020402",
"#  c #040603",
"$  c #040704",
"%  c #060E05",
"&  c #080808",
"*  c #090909",
"=  c #0A0A0A",
"-  c #0B0B0B",
";  c #0C0C0C",
":  c #0D0D0D",
">  c #0F0F0F",
",  c #081006",
"<  c #0C120A",
"1  c #0A1709",
"2  c #0C140B",
"3  c #0F1A0D",
"4  c #101010",
"5  c #111111",
"6  c #121212",
"7  c #141414",
"8  c #151515",
"9  c #171717",
"0  c #191919",
"q  c #1B1B1B",
"w  c #1E1E1E",
"e  c #0E210C",
"r  c #0A280B",
"t  c #0B280C",
"y  c #0E3D0B",
"u  c #11350F",
"i  c #1B2B18",
"p  c #133610",
"a  c #20351C",
"s  c #222222",
"d  c #242424",
"f  c #252525",
"g  c #262626",
"h  c #272727",
"j  c #282828",
"k  c #292929",
"l  c #2A2A2A",
"z  c #2C2C2C",
"x  c #2E2E2E",
"c  c #333333",
"v  c #353535",
"b  c #363636",
"n  c #373737",
"m  c #383838",
"M  c #3A3A3A",
"N  c #3B3B3B",
"B  c #3D3D3D",
"V  c #3F3F3F",
"C  c #134613",
"Z  c #1A4315",
"A  c #114A14",
"S  c #135B10",
"D  c #145118",
"F  c #214E1F",
"G  c #146C0E",
"H  c #1A7D12",
"J  c #226E1C",
"K  c #234720",
"L  c #255321",
"P  c #255523",
"I  c #2D5F29",
"U  c #256524",
"Y  c #286222",
"T  c #286A21",
"R  c #2C7528",
"E  c #2F7B2F",
"W  c #396132",
"Q  c #337A31",
"!  c #3A7A35",
"~  c #43733B",
"^  c #424242",
"/  c #454545",
"(  c #484848",
")  c #4A4A4A",
"_  c #4B4B4B",
"`  c #4C4C4C",
"'  c #4E4E4E",
"]  c #4F4F4F",
"[  c #505050",
"{  c #515151",
"}  c #525252",
"|  c #535353",
" . c #545454",
".. c #555555",
"X. c #575757",
"o. c #585858",
"O. c #595959",
"+. c #5C5C5C",
"@. c #606060",
"#. c #626262",
"$. c #646464",
"%. c #656565",
"&. c #666666",
"*. c #676767",
"=. c #696969",
"-. c #6A6A6A",
";. c #6C6C6C",
":. c #727272",
">. c #747474",
",. c #777777",
"<. c #787878",
"1. c #797979",
"2. c #7A7A7A",
"3. c #7B7B7B",
"4. c #7C7C7C",
"5. c #7D7D7D",
"6. c #7E7E7E",
"7. c #7F7F7F",
"8. c #1C8719",
"9. c #20A116",
"0. c #288129",
"q. c #32892A",
"w. c #239A2B",
"e. c #329429",
"r. c #2F9732",
"t. c #3F9235",
"y. c #3A9E3B",
"u. c #25A52E",
"i. c #30BE39",
"p. c #35BB3C",
"a. c #35C03D",
"s. c #31CF3C",
"d. c #36D13F",
"f. c #34D63F",
"g. c #53874A",
"h. c #4FB24A",
"j. c #4FB74B",
"k. c #4BBF4A",
"l. c #4EBE4B",
"z. c #50BE4C",
"x. c #3BCD42",
"c. c #3CCC42",
"v. c #3ECC43",
"b. c #3FCB44",
"n. c #37D040",
"m. c #39D041",
"M. c #40C143",
"N. c #46C347",
"B. c #43C646",
"V. c #45C547",
"C. c #40C944",
"Z. c #41C845",
"A. c #44CA47",
"S. c #4AC149",
"D. c #48C249",
"F. c #48C649",
"G. c #4EC24C",
"H. c #808080",
"J. c #818181",
"K. c #828282",
"L. c #838383",
"P. c #848484",
"I. c #858585",
"U. c #898989",
"Y. c #8A8A8A",
"T. c #8B8B8B",
"R. c #8D8D8D",
"E. c #8E8E8E",
"W. c #8F8F8F",
"Q. c #999999",
"!. c #9E9E9E",
"~. c #A1A1A1",
"^. c #A2A2A2",
"/. c #A3A3A3",
"(. c #A4A4A4",
"). c #A6A6A6",
"_. c #A8A8A8",
"`. c #ABABAB",
"'. c #ACACAC",
"]. c #AEAEAE",
"[. c #AFAFAF",
"{. c #B0B0B0",
"}. c #B2B2B2",
"|. c #B3B3B3",
" X c #B4B4B4",
".X c #B5B5B5",
"XX c #BBBBBB",
"oX c #BCBCBC",
"OX c #BDBDBD",
"+X c #BEBEBE",
"@X c #BFBFBF",
"#X c #C0C0C0",
"$X c #C3C3C3",
"%X c #C6C6C6",
"&X c #CACACA",
"*X c #CBCBCB",
"=X c #CCCCCC",
"-X c #D3D3D3",
";X c #D5D5D5",
":X c #D6D6D6",
">X c #D7D7D7",
",X c #D9D9D9",
"<X c #DADADA",
"1X c #DBDBDB",
"2X c #DCDCDC",
"3X c #DDDDDD",
"4X c #DEDEDE",
"5X c #DFDFDF",
"6X c #E0E0E0",
"7X c #E1E1E1",
"8X c #E2E2E2",
"9X c #E3E3E3",
"0X c #E4E4E4",
"qX c #E5E5E5",
"wX c #E6E6E6",
"eX c #E7E7E7",
"rX c #E8E8E8",
"tX c #E9E9E9",
"yX c #EAEAEA",
"uX c #EBEBEB",
"iX c #ECECEC",
"pX c #EDEDED",
"aX c #EEEEEE",
"sX c #EFEFEF",
"dX c #F0F0F0",
"fX c #F1F1F1",
"gX c #F2F2F2",
"hX c #F3F3F3",
"jX c #F4F4F4",
"kX c #F5F5F5",
"lX c #F6F6F6",
"zX c #F7F7F7",
"xX c #F8F8F8",
"cX c #F9F9F9",
"vX c #FAFAFA",
"bX c #FBFBFB",
"nX c #FCFCFC",
"mX c None",
/* pixels */
"mXmXmXmXmXmXmXmXmXmXmXmXmXmXmXmXmXmXmXmXmXmXmXmXmXmXmXmXmXmXmXmX",
"mXmXmXmXmXmXmXmXmXmXmXmXmXmXmXmXmXmXmXmXmXmXmXmXmXmXmXmXmXmXmXmX",
"mXmXG 9.S A D C J e.p mXmXmXmXmXmXmXmXmXmXmXmXmXmXmXmXmXmXmXmXmX",
"mXmXH 8.u.s.d.a.0.q.Z mXmXmXmXmXmXmXmXmXmXmXmXmXmXmXmXmXmXmXmXmX",
"mXmXy w.f.n.x.b.M.U e mXmXmXmXmXmXmXmXmXmXmXmXmXmXmXmXmXmXmXmXmX",
"mXmXt i.m.c.C.B.F.E @ mXmXmXmXmXmXmXmXmXmXmXmXmXmXmXmXmXmXmXmXmX",
"mXmXt p.c.B.V.D.G.Q @ mXmXmXmXmXmXmXmXmXmXmXmXmXmXmXmXmXmXmXmXmX",
"mXmXp r.A.N.D.l.j.I 3 mXmXmXmXmXmXmXmXmXmXmXmXmXmXmXmXmXmXmXmXmX",
"mXmXT R y.k.l.h.! ~ i mXmXmXmXmXmXmXmXmXmXmXmXmXmXmXmXmXmXmXmXmX",
"mXmXY t.L L P K W g.i mXmXmXmXmXmXmXmXmXmXmXmXmXmXmXmXmXmXmXmXmX",
"mXmX% 1 ,     $ 2 2 $ mXmXmXmXmXmXmXmXmXmXmXmXmXmXmXmXmXmXmXmXmX",
"mXmXmXmX    mXmXmXmXmXmXmXmXmXmXmXmXmXmXmXmXmXmXmXmXmXmXmXmXmXmX",
"mXmXmXmX  mXmXmXmXmXmXmXmXmXmXmXmXmXmXmXmXmXmXmXmXmXmXmXmXmXmXmX",
"mXmXn -.$.-.X.O.I.I.L.L.I.I.L.L.L.L.L.L.L.7.L.}  .$.$.$.N mXmXmX",
"mXmXX.].].].E.`.nXxXzXzXzXhXgXjXgXgXaXaXaXuXaX!.I.(.~.~.+.mXmXmX",
"mXmX@.$X$XOXOX9XbXbXzXjXgXgXgX(.$.$.T.eXaXuXuX:X X X|. X$.mXmXmX",
"mXmX7.@XX.X.}  .$._.aXzXjXgXgX:.9   N 9XuXuXeXuXuXuXuXuX7.mXmXmX",
"mXmX7.].9 O d d - & U.jXjXjXiX2X%Xk n 9XuXuXuXeXeXeX9XeX7.mXmXmX",
"mXmX2.zX@.; OXuXR.  N uXiXQ.( N $.w c 9XuXuXuXeXeXeX9XeX7.mXmXmX",
"mXmX2.nX$.; XXuXW.  N uXT.& 0 / 0   n 5XuXuXeXeXeX9X9X9X7.mXmXmX",
"mXmX2.bX$.  d k - - W.5Xk 4 {.aX`.- n 5XuXuXeXeXeXeX9X9X2.mXmXmX",
"mXmX2.bX*.  B ` @.(.aX&X5 x 9XgX1Xd n 5XuXeXeXeX9X9X9X5X2.mXmXmX",
"mXmX2.bX@.> XXgXzXzXzX:Xs 9 XXgX|.> n 5XuXuXeXeXeX9X9X5X2.mXmXmX",
"mXmX7.].0   z T.jXjXgXdX,.$ d O.d   - 7.eXeXeXeXeX9X5X5X2.mXmXmX",
"mXmX7. X) / ^ E.gXzXgXgXeX7.c d $.-.B T.uXeXeXeX9X9X5X1X,.mXmXmX",
"mXmX2.nXzXgXgXzXzXgXgXaXgXaX9X1XuXeXeXeXeXeX9XeX9X5X5X1X,.mXmXmX",
"mXmX$.=X=X=X&X9XgXgXgXgXgXaXaXaXaXuXuXeXeXeXeX9X9X5X1X:X,.mXmXmX",
"mXmX- 5 9 5 > L.gXaXuXuXuXuXuXeXeXeXeX9X9X9X9X9X5X:X:X-X,.mXmXmX",
"mXmX          k X.} } X.} } } } } } } ` } } ` ` ` ` ) ) k mXmXmX",
"mXmXmX                                                    mXmXmX",
"mXmXmXmXmXmXmXmXmXmXmXmXmXmXmXmXmXmXmXmXmXmXmXmXmXmXmXmXmXmXmXmX",
"mXmXmXmXmXmXmXmXmXmXmXmXmXmXmXmXmXmXmXmXmXmXmXmXmXmXmXmXmXmXmXmX"
};
